<?xml version="1.0" standalone="no"?>
<!DOCTYPE svg PUBLIC "-//W3C//DTD SVG 20010904//EN"
 "http://www.w3.org/TR/2001/REC-SVG-20010904/DTD/svg10.dtd">
<svg version="1.0" xmlns="http://www.w3.org/2000/svg"
 width="540.000000pt" height="462.000000pt" viewBox="0 0 540.000000 462.000000"
 preserveAspectRatio="xMidYMid meet">

<g transform="translate(0.000000,462.000000) scale(0.100000,-0.100000)"
fill="#ff3a5e" stroke="none">
<path d="M2260 3815 l0 -804 115 117 114 117 1 568 0 567 881 0 c838 0 881 -1
868 -17 -28 -36 -487 -580 -783 -928 -56 -66 -259 -306 -452 -534 -192 -228
-375 -444 -406 -480 l-58 -66 0 -1173 0 -1173 983 4 c967 3 983 3 1057 24 106
30 146 46 225 86 280 142 492 407 560 700 114 492 -114 983 -561 1211 -86 44
-133 61 -244 88 -80 20 -118 21 -627 25 l-543 5 0 -858 0 -858 28 25 c15 14
69 63 120 109 l92 83 0 629 0 629 433 -4 c419 -3 434 -4 502 -26 286 -94 487
-303 571 -591 15 -51 19 -98 19 -215 0 -130 -3 -160 -23 -225 -91 -288 -290
-487 -579 -577 l-88 -28 -847 -3 -848 -3 0 1012 0 1012 148 174 c81 96 176
210 212 252 36 42 97 115 136 162 39 46 199 235 355 419 157 184 334 394 394
465 60 72 161 191 225 266 63 74 156 183 205 242 50 59 95 107 102 107 28 0
147 -50 215 -90 99 -59 224 -185 282 -285 25 -44 61 -123 79 -175 32 -95 32
-95 32 -305 0 -146 -4 -224 -13 -255 -28 -94 -67 -178 -118 -257 -115 -178
-278 -296 -489 -355 -77 -21 -99 -22 -607 -26 l-528 -3 0 -115 0 -114 513 0
c544 0 591 3 742 50 334 105 618 406 706 748 49 194 47 475 -6 667 -98 355
-397 652 -750 743 -150 39 -239 42 -1310 42 l-1035 0 0 -805z"/>
<path d="M26 4578 c4 -7 35 -44 69 -83 33 -38 122 -140 196 -225 74 -85 229
-263 344 -395 116 -133 327 -376 470 -540 143 -164 327 -376 409 -470 160
-183 200 -229 352 -404 54 -63 116 -132 136 -155 l37 -41 1 -1127 0 -1128 115
0 115 0 0 1171 0 1171 -57 66 c-32 37 -123 141 -203 232 -80 92 -231 265 -336
386 -105 120 -289 332 -409 469 -119 138 -288 331 -374 430 -86 99 -250 287
-364 418 l-208 237 -150 0 c-117 0 -149 -3 -143 -12z"/>
</g>
</svg>
